<?xml version="1.0" encoding="utf-8"?>
<!-- Generator: Adobe Illustrator 18.0.0, SVG Export Plug-In . SVG Version: 6.00 Build 0)  -->
<!DOCTYPE svg PUBLIC "-//W3C//DTD SVG 1.1//EN" "http://www.w3.org/Graphics/SVG/1.1/DTD/svg11.dtd">
<svg version="1.1" id="Layer_1" xmlns="http://www.w3.org/2000/svg" xmlns:xlink="http://www.w3.org/1999/xlink" x="0px" y="0px"
	 viewBox="0 0 300 300" enable-background="new 0 0 300 300" xml:space="preserve">
<g>
	<path id="svg_6_1_" fill="#FFFFFF" stroke="#FFFFFF" stroke-width="30" stroke-linejoin="round" stroke-miterlimit="10" d="
		M151.7,35l12.6,12.6l88.2,201.7l12.6,25.2l12.6-12.6l-25.2-12.6"/>
	<path id="svg_7_1_" fill="#FFFFFF" stroke="#FFFFFF" stroke-width="30" stroke-linejoin="round" stroke-miterlimit="10" d="
		M113.9,35h25.2l12.6,12.6l88.2,201.7l12.6,25.2l12.6,12.6h12.6l25.2-37.8h-25.2l-12.6-12.6L176.9,35l-12.6-12.6h-25.2L113.9,35
		L88.7,60.2"/>
	<path id="svg_9_1_" fill="#FFFFFF" stroke="#FFFFFF" stroke-width="30" stroke-linejoin="round" stroke-miterlimit="10" d="
		M139.1,97.9v12.7"/>
	<path id="svg_10_1_" fill="#FFFFFF" stroke="#FFFFFF" stroke-width="30" stroke-linejoin="round" stroke-miterlimit="10" d="
		M141.2,126.8l-14.6-28.8h-25.2l-12.7,12.7L101.2,98l25.2-12.6H139l13.9,13.7"/>
	<path id="svg_12_1_" fill="#FFFFFF" stroke="#FFFFFF" stroke-width="30" stroke-linejoin="round" stroke-miterlimit="10" d="
		M63.5,261.8h50.4l12.6,12.6"/>
	<path id="svg_13_1_" fill="#FFFFFF" stroke="#FFFFFF" stroke-width="30" stroke-linejoin="round" stroke-miterlimit="10" d="
		M139.1,261.8L113.9,287l-12.6-12.6H63.5L25.7,287l25.2-25.2l25.2-12.6h37.8L139.1,261.8z"/>
	<path id="svg_14_1_" fill="#FFFFFF" stroke="#FFFFFF" stroke-width="30" stroke-linejoin="round" stroke-miterlimit="10" d="
		M163.5,74.6L88.7,249.2"/>
	<path id="svg_15_1_" fill="#FFFFFF" stroke="#FFFFFF" stroke-width="30" stroke-linejoin="round" stroke-miterlimit="10" d="
		M113.9,186.2h100.8"/>
</g>
<g>
	
		<path id="svg_5" fill="none" stroke="#000000" stroke-width="7" stroke-linecap="round" stroke-linejoin="round" stroke-miterlimit="10" d="
		M88.7,59.4l25.2-25.2L139,21.6h25.3l12.6,12.6l88.2,201.7l12.6,12.6h25.2"/>
	
		<path id="svg_6" fill="none" stroke="#000000" stroke-width="7" stroke-linecap="round" stroke-linejoin="round" stroke-miterlimit="10" d="
		M151.7,34.2l12.6,12.6l88.2,201.7l12.6,25.2l12.6-12.6l-25.2-12.6"/>
	
		<path id="svg_7" fill="none" stroke="#000000" stroke-width="7" stroke-linecap="round" stroke-linejoin="round" stroke-miterlimit="10" d="
		M113.9,34.2h25.2l12.6,12.6l88.2,201.7l12.6,25.2l12.6,12.6h12.6l25.2-37.8"/>
	
		<path id="svg_8" fill="none" stroke="#000000" stroke-width="7" stroke-linecap="round" stroke-linejoin="round" stroke-miterlimit="10" d="
		M88.7,109.9l12.6-12.6l25.2-12.6H139l13.9,13.7"/>
	
		<path id="svg_9" fill="none" stroke="#000000" stroke-width="7" stroke-linecap="round" stroke-linejoin="round" stroke-miterlimit="10" d="
		M139.1,97.2v12.7"/>
	
		<path id="svg_10" fill="none" stroke="#000000" stroke-width="7" stroke-linecap="round" stroke-linejoin="round" stroke-miterlimit="10" d="
		M101.2,97.2h25.2l14.6,28.8"/>
	
		<path id="svg_11" fill="none" stroke="#000000" stroke-width="7" stroke-linecap="round" stroke-linejoin="round" stroke-miterlimit="10" d="
		M25.7,286.3l25.2-25.2l25.2-12.6h37.8l25.2,12.6"/>
	
		<path id="svg_12" fill="none" stroke="#000000" stroke-width="7" stroke-linecap="round" stroke-linejoin="round" stroke-miterlimit="10" d="
		M63.5,261.1h50.4l12.6,12.6"/>
	
		<path id="svg_13" fill="none" stroke="#000000" stroke-width="7" stroke-linecap="round" stroke-linejoin="round" stroke-miterlimit="10" d="
		M25.7,286.3l37.8-12.6h37.8l12.6,12.6l25.2-25.2"/>
	
		<path id="svg_14" fill="none" stroke="#000000" stroke-width="7" stroke-linecap="round" stroke-linejoin="round" stroke-miterlimit="10" d="
		M163.5,73.8L88.7,248.4"/>
	
		<path id="svg_15" fill="none" stroke="#000000" stroke-width="7" stroke-linecap="round" stroke-linejoin="round" stroke-miterlimit="10" d="
		M113.9,185.4h100.8"/>
</g>
</svg>
